<?xml version="1.0" encoding="utf-8"?>
<!-- Generator: Adobe Illustrator 16.0.0, SVG Export Plug-In . SVG Version: 6.00 Build 0)  -->
<!DOCTYPE svg PUBLIC "-//W3C//DTD SVG 1.1//EN" "http://www.w3.org/Graphics/SVG/1.1/DTD/svg11.dtd">
<svg version="1.1" id="Capa_1" xmlns="http://www.w3.org/2000/svg" xmlns:xlink="http://www.w3.org/1999/xlink" x="0px" y="0px"
	 width="35px" height="35px" viewBox="0 0 35 35" enable-background="new 0 0 35 35" xml:space="preserve">
<g>
	<defs>
		<rect id="SVGID_1_" x="0.748" y="1.13" width="33.446" height="33.446"/>
	</defs>
	<clipPath id="SVGID_2_">
		<use xlink:href="#SVGID_1_"  overflow="visible"/>
	</clipPath>
	<path clip-path="url(#SVGID_2_)" fill="#FFFFFF" d="M17.471,33.623c8.71,0,15.77-7.061,15.77-15.77
		c0-8.71-7.06-15.771-15.77-15.771c-8.71,0-15.77,7.06-15.77,15.771C1.701,26.562,8.761,33.623,17.471,33.623"/>
	<path clip-path="url(#SVGID_2_)" fill="#010202" d="M27.402,27.784c-1.291,1.291-2.793,2.304-4.465,3.011
		c-0.425,0.18-0.856,0.338-1.294,0.474v-2.507c0-1.317-0.451-2.286-1.355-2.906c0.566-0.055,1.086-0.131,1.561-0.229
		c0.473-0.099,0.974-0.24,1.502-0.425c0.527-0.186,1.002-0.405,1.421-0.661s0.821-0.588,1.208-0.996
		c0.387-0.409,0.711-0.871,0.972-1.389s0.468-1.138,0.621-1.861c0.152-0.725,0.228-1.522,0.228-2.394
		c0-1.687-0.549-3.124-1.648-4.311c0.501-1.307,0.446-2.728-0.163-4.263l-0.409-0.049c-0.283-0.032-0.792,0.087-1.526,0.36
		c-0.735,0.272-1.56,0.718-2.475,1.339c-1.295-0.36-2.64-0.539-4.034-0.539c-1.404,0-2.743,0.179-4.017,0.539
		c-0.577-0.392-1.124-0.716-1.641-0.972c-0.518-0.256-0.931-0.43-1.242-0.523c-0.31-0.092-0.598-0.149-0.865-0.171
		C9.512,9.29,9.341,9.285,9.264,9.296c-0.076,0.011-0.13,0.021-0.163,0.032c-0.61,1.546-0.664,2.967-0.163,4.263
		c-1.1,1.187-1.65,2.624-1.65,4.311c0,0.871,0.077,1.669,0.229,2.394c0.152,0.724,0.359,1.344,0.621,1.861
		c0.261,0.518,0.585,0.979,0.971,1.389c0.387,0.408,0.79,0.74,1.209,0.996s0.893,0.476,1.421,0.661
		c0.528,0.185,1.028,0.326,1.502,0.425c0.474,0.098,0.994,0.174,1.56,0.229c-0.893,0.609-1.339,1.578-1.339,2.906v2.556
		c-0.494-0.146-0.98-0.32-1.457-0.522c-1.672-0.707-3.175-1.72-4.465-3.011c-1.291-1.29-2.304-2.793-3.011-4.466
		c-0.732-1.729-1.103-3.568-1.103-5.466c0-1.897,0.371-3.736,1.103-5.466c0.707-1.672,1.72-3.174,3.011-4.465
		c1.29-1.291,2.793-2.304,4.465-3.011c1.73-0.732,3.569-1.103,5.466-1.103s3.736,0.371,5.466,1.103
		c1.672,0.707,3.175,1.72,4.465,3.011c1.291,1.291,2.304,2.793,3.011,4.465c0.732,1.73,1.104,3.569,1.104,5.466
		c0,1.897-0.371,3.736-1.104,5.466C29.706,24.991,28.693,26.494,27.402,27.784 M17.471,1.13c-9.236,0-16.723,7.487-16.723,16.723
		c0,9.236,7.487,16.724,16.723,16.724s16.723-7.487,16.723-16.724C34.194,8.617,26.707,1.13,17.471,1.13"/>
</g>
</svg>
