<?xml version="1.0" encoding="utf-8"?>
<!-- Generator: Adobe Illustrator 16.0.0, SVG Export Plug-In . SVG Version: 6.00 Build 0)  -->
<!DOCTYPE svg PUBLIC "-//W3C//DTD SVG 1.1//EN" "http://www.w3.org/Graphics/SVG/1.1/DTD/svg11.dtd">
<svg version="1.1" id="Capa_1" xmlns="http://www.w3.org/2000/svg" xmlns:xlink="http://www.w3.org/1999/xlink" x="0px" y="0px"
	 width="35px" height="35px" viewBox="0 0 35 35" enable-background="new 0 0 35 35" xml:space="preserve">
<g>
	<defs>
		<rect id="SVGID_1_" x="0.777" y="0.777" width="33.446" height="33.445"/>
	</defs>
	<clipPath id="SVGID_2_">
		<use xlink:href="#SVGID_1_"  overflow="visible"/>
	</clipPath>
	<path clip-path="url(#SVGID_2_)" fill="#FFFFFF" d="M18.453,33.27c8.711,0,15.771-7.061,15.771-15.769
		c0-8.71-7.06-15.771-15.771-15.771c-8.709,0-15.77,7.06-15.77,15.771C2.684,26.209,9.744,33.27,18.453,33.27"/>
	<path clip-path="url(#SVGID_2_)" fill="#010202" d="M17.5,31.609c-7.793,0-14.11-6.316-14.11-14.11
		c0-7.793,6.317-14.11,14.11-14.11c7.793,0,14.11,6.317,14.11,14.11C31.61,25.293,25.294,31.609,17.5,31.609 M17.5,0.777
		C8.265,0.777,0.777,8.264,0.777,17.5c0,9.237,7.487,16.723,16.723,16.723S34.224,26.736,34.224,17.5
		C34.224,8.264,26.736,0.777,17.5,0.777"/>
	<path clip-path="url(#SVGID_2_)" fill="#030305" d="M23.805,23.746h-2.732v-4.854c0-1.262-0.448-1.895-1.34-1.895
		c-0.706,0-1.17,0.353-1.395,1.059c-0.072,0.113-0.111,0.336-0.111,0.67v5.02h-2.732v-5.912c0-1.338-0.02-2.267-0.055-2.787h2.342
		l0.167,1.17c0.614-0.931,1.506-1.394,2.733-1.394c0.931,0,1.683,0.324,2.258,0.975c0.579,0.651,0.867,1.59,0.867,2.817v5.131
		H23.805z M12.539,13.931c-0.966,0-1.449-0.447-1.449-1.338c0-0.373,0.137-0.69,0.418-0.949c0.278-0.259,0.621-0.39,1.031-0.39
		c0.965,0,1.449,0.449,1.449,1.34C13.987,13.486,13.505,13.931,12.539,13.931 M13.876,23.746h-2.677v-8.699h2.677V23.746z"/>
</g>
</svg>
