<?xml version="1.0" encoding="utf-8"?>
<!-- Generator: Adobe Illustrator 16.0.0, SVG Export Plug-In . SVG Version: 6.00 Build 0)  -->
<!DOCTYPE svg PUBLIC "-//W3C//DTD SVG 1.1//EN" "http://www.w3.org/Graphics/SVG/1.1/DTD/svg11.dtd">
<svg version="1.1" id="Capa_1" xmlns="http://www.w3.org/2000/svg" xmlns:xlink="http://www.w3.org/1999/xlink" x="0px" y="0px"
	 width="35px" height="35px" viewBox="0 0 35 35" enable-background="new 0 0 35 35" xml:space="preserve">
<g>
	<defs>
		<rect id="SVGID_1_" x="0.768" y="1.084" width="33.446" height="33.446"/>
	</defs>
	<clipPath id="SVGID_2_">
		<use xlink:href="#SVGID_1_"  overflow="visible"/>
	</clipPath>
	<path clip-path="url(#SVGID_2_)" fill="#FFFFFF" d="M17.328,33.577c8.71,0,15.771-7.061,15.771-15.77
		c0-8.71-7.061-15.771-15.771-15.771s-15.77,7.06-15.77,15.771C1.558,26.517,8.618,33.577,17.328,33.577"/>
	<path clip-path="url(#SVGID_2_)" fill="#010202" d="M17.491,31.917c-7.793,0-14.11-6.317-14.11-14.11s6.317-14.11,14.11-14.11
		c7.793,0,14.11,6.317,14.11,14.11S25.284,31.917,17.491,31.917 M17.491,1.084c-9.236,0-16.723,7.487-16.723,16.723
		c0,9.237,7.487,16.724,16.723,16.724s16.723-7.486,16.723-16.724C34.214,8.571,26.727,1.084,17.491,1.084"/>
	<path clip-path="url(#SVGID_2_)" fill="#010202" d="M25.853,12.25c-0.282,0.167-1.127,0.501-1.915,0.585
		c0.505-0.294,1.254-1.255,1.438-2.018c-0.484,0.334-1.601,0.821-2.151,0.821c0,0,0,0.001,0.001,0.002
		c-0.629-0.708-1.514-1.149-2.495-1.149c-1.904,0-3.45,1.664-3.45,3.716c0,0.284,0.032,0.561,0.089,0.827h-0.001
		c-2.585-0.071-5.606-1.466-7.308-3.854c-1.046,1.95-0.141,4.119,1.046,4.909c-0.405,0.034-1.155-0.05-1.507-0.419
		c-0.024,1.294,0.554,3.008,2.661,3.63c-0.406,0.235-1.123,0.168-1.436,0.115c0.11,1.095,1.531,2.523,3.084,2.523
		c-0.554,0.688-2.442,1.94-4.778,1.542c1.587,1.041,3.438,1.643,5.396,1.643c5.566,0,9.889-4.856,9.656-10.85
		c0-0.007-0.002-0.014-0.002-0.02c0-0.017,0.002-0.033,0.002-0.047c0-0.019-0.002-0.037-0.002-0.056
		C24.686,13.778,25.365,13.119,25.853,12.25"/>
</g>
</svg>
